# xmcd CD database file
#
# Track frame offsets:
#	150
#	22200
#	41925
#
# Disc length: 691 seconds
#
# Revision: 7
# Processed by: cddbd v1.5PL3 Copyright (c) Steve Scherf et al.
# Submitted via: CDex 1.50beta9
#
DISCID=2602b103
DTITLE=ゆず - センチメンタル
DYEAR=1999
DGENRE=Pop
TTITLE0=センチメンタル
TTITLE1=踏切
TTITLE2=過食な健康食
EXTD=YEAR: 1999
EXTT0=
EXTT1=
EXTT2=
PLAYORDER=
